<svg xmlns="http://www.w3.org/2000/svg" width="225" height="225" viewBox="0 0 225 225">
<g>
<path d="M 208.50 217.72 L 204.50 219.97 L 113.00 219.98 C32.03,219.99 21.15,219.81 18.50,218.43 C13.86,216.02 11.06,212.96 9.93,209.06 C9.25,206.71 9.00,178.53 9.20,125.82 C9.50,47.14 9.53,46.11 11.56,43.38 C16.03,37.41 18.27,36.53 29.97,36.16 L 40.81 35.83 L 41.15 27.09 C41.45,19.56 41.88,17.77 44.25,14.19 C48.06,8.44 53.66,5.78 63.12,5.21 C80.23,4.19 87.87,10.90 88.80,27.75 L 89.25 36.00 L 136.81 36.00 L 137.15 26.67 C137.46,18.33 137.79,16.96 140.23,13.76 C144.64,7.98 148.99,5.88 157.77,5.29 C167.27,4.65 172.85,6.05 177.66,10.28 C182.61,14.62 184.00,18.49 184.00,27.97 L 184.00 36.00 L 194.27 36.00 C205.97,36.00 209.95,37.43 213.75,43.00 L 216.00 46.30 L 216.00 127.40 C216.00,132.26 216.00,136.84 216.00,141.17 C216.02,204.03 216.02,212.45 211.91,215.73 C211.00,216.47 209.87,216.95 208.50,217.72 ZM 117.00 124.00 L 117.00 163.04 L 136.75 162.77 L 156.50 162.50 L 157.04 124.00 ZM 69.69 162.35 C70.07,162.73 78.95,162.92 89.44,162.77 L 108.50 162.50 L 109.04 124.00 L 69.00 124.00 L 69.00 142.83 C69.00,153.19 69.31,161.98 69.69,162.35 ZM 117.00 170.00 L 117.00 205.04 L 136.75 204.77 L 156.50 204.50 L 156.77 187.25 L 157.05 170.00 ZM 69.00 170.00 L 69.00 205.04 L 88.75 204.77 L 108.50 204.50 L 109.05 170.00 ZM 165.69 162.36 C166.07,162.74 174.06,162.92 183.44,162.77 L 200.50 162.50 L 201.04 124.00 L 165.00 124.00 L 165.00 142.83 C165.00,153.19 165.31,161.98 165.69,162.36 ZM 25.69 162.36 C26.07,162.74 34.06,162.92 43.44,162.77 L 60.50 162.50 L 60.77 143.25 L 61.04 124.00 L 25.00 124.00 L 25.00 142.83 C25.00,153.19 25.31,161.98 25.69,162.36 ZM 69.69 116.35 C70.07,116.73 78.95,116.92 89.44,116.77 L 108.50 116.50 L 109.05 82.00 L 69.00 82.00 L 69.00 98.83 C69.00,108.09 69.31,115.98 69.69,116.35 ZM 117.69 116.35 C118.07,116.73 126.95,116.92 137.44,116.77 L 156.50 116.50 L 156.77 99.25 L 157.05 82.00 L 117.00 82.00 L 117.00 98.83 C117.00,108.09 117.31,115.98 117.69,116.35 ZM 165.00 170.00 L 165.00 205.05 L 200.50 204.50 L 200.77 187.25 L 201.05 170.00 ZM 25.00 170.00 L 25.00 205.05 L 60.50 204.50 L 61.05 170.00 ZM 165.69 116.36 C166.07,116.74 174.06,116.92 183.44,116.77 L 200.50 116.50 L 200.77 99.25 L 201.05 82.00 L 165.00 82.00 L 165.00 98.83 C165.00,108.09 165.31,115.98 165.69,116.36 ZM 25.69 116.36 C26.07,116.74 34.06,116.92 43.44,116.77 L 60.50 116.50 L 61.05 82.00 L 25.00 82.00 L 25.00 98.83 C25.00,108.09 25.31,115.98 25.69,116.36 ZM 58.67 61.75 C61.01,63.46 70.45,63.37 71.90,61.62 C72.69,60.66 72.96,54.31 72.77,40.87 L 72.50 21.50 L 67.50 20.92 C64.75,20.59 61.38,20.63 60.00,20.99 L 57.50 21.64 L 57.23 41.07 C56.98,58.45 57.14,60.63 58.67,61.75 ZM 154.10 61.62 C155.74,63.59 165.40,63.45 167.43,61.43 C168.74,60.11 169.00,56.89 168.98,41.68 C168.98,31.68 168.60,22.92 168.15,22.20 C167.57,21.29 165.26,20.99 160.41,21.20 L 153.50 21.50 L 153.23 40.87 C153.04,54.31 153.31,60.66 154.10,61.62 Z" fill="rgb(0,0,0)"/>
<path d="M 0.00 112.50 L 0.00 0.00 L 112.50 0.00 L 225.00 0.00 L 225.00 112.50 L 225.00 225.00 L 112.50 225.00 L 0.00 225.00 L 0.00 112.50 ZM 208.50 217.72 C216.44,213.25 216.00,218.62 216.00,127.40 L 216.00 46.30 L 213.75 43.00 C209.95,37.43 205.97,36.00 194.27,36.00 L 184.00 36.00 L 184.00 27.97 C184.00,18.49 182.61,14.62 177.66,10.28 C172.85,6.05 167.27,4.65 157.77,5.29 C148.99,5.88 144.64,7.98 140.23,13.76 C137.79,16.96 137.46,18.33 137.15,26.67 L 136.81 36.00 L 113.03 36.00 L 89.25 36.00 L 88.80 27.75 C87.87,10.90 80.23,4.19 63.12,5.21 C53.66,5.78 48.06,8.44 44.25,14.19 C41.88,17.77 41.45,19.56 41.15,27.09 L 40.81 35.83 L 29.97 36.16 C18.27,36.53 16.03,37.41 11.56,43.38 C9.53,46.11 9.50,47.14 9.20,125.82 C9.00,178.53 9.25,206.71 9.93,209.06 C11.06,212.96 13.86,216.02 18.50,218.43 C21.15,219.81 32.03,219.99 113.00,219.98 L 204.50 219.97 L 208.50 217.72 ZM 25.00 187.52 L 25.00 170.00 L 43.02 170.00 L 61.05 170.00 L 60.77 187.25 L 60.50 204.50 L 42.75 204.77 L 25.00 205.05 L 25.00 187.52 ZM 69.00 187.52 L 69.00 170.00 L 89.02 170.00 L 109.05 170.00 L 108.77 187.25 L 108.50 204.50 L 88.75 204.77 L 69.00 205.04 L 69.00 187.52 ZM 117.00 187.52 L 117.00 170.00 L 137.02 170.00 L 157.05 170.00 L 156.77 187.25 L 156.50 204.50 L 136.75 204.77 L 117.00 205.04 L 117.00 187.52 ZM 165.00 187.52 L 165.00 170.00 L 183.02 170.00 L 201.05 170.00 L 200.77 187.25 L 200.50 204.50 L 182.75 204.77 L 165.00 205.05 L 165.00 187.52 ZM 25.69 162.36 C25.31,161.98 25.00,153.19 25.00,142.83 L 25.00 124.00 L 43.02 124.00 L 61.04 124.00 L 60.77 143.25 L 60.50 162.50 L 43.44 162.77 C34.06,162.92 26.07,162.74 25.69,162.36 ZM 69.69 162.35 C69.31,161.98 69.00,153.19 69.00,142.83 L 69.00 124.00 L 89.02 124.00 L 109.04 124.00 L 108.77 143.25 L 108.50 162.50 L 89.44 162.77 C78.95,162.92 70.07,162.73 69.69,162.35 ZM 117.00 143.52 L 117.00 124.00 L 137.02 124.00 L 157.04 124.00 L 156.77 143.25 L 156.50 162.50 L 136.75 162.77 L 117.00 163.04 L 117.00 143.52 ZM 165.69 162.36 C165.31,161.98 165.00,153.19 165.00,142.83 L 165.00 124.00 L 183.02 124.00 L 201.04 124.00 L 200.77 143.25 L 200.50 162.50 L 183.44 162.77 C174.06,162.92 166.07,162.74 165.69,162.36 ZM 25.69 116.36 C25.31,115.98 25.00,108.09 25.00,98.83 L 25.00 82.00 L 43.02 82.00 L 61.05 82.00 L 60.77 99.25 L 60.50 116.50 L 43.44 116.77 C34.06,116.92 26.07,116.74 25.69,116.36 ZM 69.69 116.35 C69.31,115.98 69.00,108.09 69.00,98.83 L 69.00 82.00 L 89.02 82.00 L 109.05 82.00 L 108.77 99.25 L 108.50 116.50 L 89.44 116.77 C78.95,116.92 70.07,116.73 69.69,116.35 ZM 117.69 116.35 C117.31,115.98 117.00,108.09 117.00,98.83 L 117.00 82.00 L 137.02 82.00 L 157.05 82.00 L 156.77 99.25 L 156.50 116.50 L 137.44 116.77 C126.95,116.92 118.07,116.73 117.69,116.35 ZM 165.69 116.36 C165.31,115.98 165.00,108.09 165.00,98.83 L 165.00 82.00 L 183.02 82.00 L 201.05 82.00 L 200.77 99.25 L 200.50 116.50 L 183.44 116.77 C174.06,116.92 166.07,116.74 165.69,116.36 ZM 58.67 61.75 C57.14,60.63 56.98,58.45 57.23,41.07 L 57.50 21.64 L 60.00 20.99 C61.38,20.63 64.75,20.59 67.50,20.92 L 72.50 21.50 L 72.77 40.87 C72.96,54.31 72.69,60.66 71.90,61.62 C70.45,63.37 61.01,63.46 58.67,61.75 ZM 154.10 61.62 C153.31,60.66 153.04,54.31 153.23,40.87 L 153.50 21.50 L 160.41 21.20 C165.26,20.99 167.57,21.29 168.15,22.20 C168.60,22.92 168.98,31.68 168.98,41.68 C169.00,56.89 168.74,60.11 167.43,61.43 C165.40,63.45 155.74,63.59 154.10,61.62 Z" fill="rgb(254,254,254)"/>
</g>
</svg>