<svg xmlns="http://www.w3.org/2000/svg" width="225" height="225" viewBox="0 0 225 225">
<g>
<path d="M 208.68 217.41 C205.87,219.49 205.43,219.50 114.17,219.77 L 22.49 220.03 L 18.05 217.77 C15.61,216.52 12.69,214.23 11.56,212.68 C9.52,209.88 9.50,209.05 9.50,128.00 C9.50,46.89 9.52,46.12 11.56,43.39 C16.03,37.41 18.27,36.53 29.97,36.16 L 40.81 35.83 L 41.15 27.09 C41.45,19.56 41.88,17.77 44.25,14.19 C48.61,7.61 53.64,5.51 65.00,5.50 C73.09,5.50 75.10,5.84 78.52,7.80 C85.74,11.95 88.86,18.79 88.96,30.75 L 89.00 36.00 L 136.81 36.00 L 137.15 26.59 C137.48,17.84 137.71,16.92 140.55,13.41 C144.87,8.08 149.91,5.77 158.36,5.23 C175.65,4.13 184.00,11.53 184.00,27.96 L 184.00 36.00 L 193.68 36.00 C205.52,36.00 210.47,37.94 213.82,43.89 L 216.00 47.77 L 216.00 208.70 L 213.75 212.01 C212.51,213.83 210.23,216.26 208.68,217.41 ZM 117.00 124.00 L 117.00 163.00 L 157.00 163.00 L 157.00 124.00 ZM 69.00 124.00 L 69.00 163.04 L 88.75 162.77 L 108.50 162.50 L 109.04 124.00 ZM 25.00 124.00 L 25.00 163.00 L 61.00 163.00 L 61.00 124.00 ZM 69.00 170.00 L 69.00 205.00 L 109.00 205.00 L 109.00 170.00 ZM 117.00 170.00 L 117.00 205.00 L 157.00 205.00 L 157.00 170.00 ZM 165.00 124.00 L 165.00 163.05 L 200.50 162.50 L 201.04 124.00 ZM 117.00 82.00 L 117.00 117.04 L 156.50 116.50 L 156.77 99.25 L 157.05 82.00 ZM 69.00 82.00 L 69.00 117.04 L 108.50 116.50 L 109.05 82.00 ZM 25.00 82.00 L 25.00 117.00 L 61.00 117.00 L 61.00 82.00 ZM 25.00 170.00 L 25.00 205.00 L 61.00 205.00 L 61.00 170.00 ZM 165.00 170.00 L 165.00 205.00 L 201.00 205.00 L 201.00 170.00 ZM 165.00 82.00 L 165.00 117.05 L 182.75 116.77 L 200.50 116.50 L 200.77 99.25 L 201.05 82.00 ZM 153.57 61.43 C154.64,62.50 157.01,63.00 161.04,63.00 C165.84,63.00 167.12,62.64 167.96,61.07 C169.49,58.22 169.34,22.74 167.80,21.20 C165.99,19.39 155.48,19.66 153.57,21.57 C151.24,23.91 151.24,59.09 153.57,61.43 ZM 58.75 61.92 C61.19,63.34 70.35,63.25 71.80,61.80 C73.49,60.11 73.49,22.89 71.80,21.20 C70.24,19.64 59.76,19.64 58.20,21.20 C57.35,22.05 57.00,28.01 57.00,41.65 C57.00,58.93 57.18,61.01 58.75,61.92 Z" fill="rgb(0,0,0)"/>
<path d="M 0.00 112.50 L 0.00 0.00 L 112.50 0.00 L 225.00 0.00 L 225.00 112.50 L 225.00 225.00 L 112.50 225.00 L 0.00 225.00 L 0.00 112.50 ZM 208.68 217.41 C210.23,216.26 212.51,213.83 213.75,212.01 L 216.00 208.70 L 216.00 128.24 L 216.00 47.77 L 213.82 43.89 C210.47,37.94 205.52,36.00 193.68,36.00 L 184.00 36.00 L 184.00 27.96 C184.00,11.53 175.65,4.13 158.36,5.23 C149.91,5.77 144.87,8.08 140.55,13.41 C137.71,16.92 137.48,17.84 137.15,26.59 L 136.81 36.00 L 112.90 36.00 L 89.00 36.00 L 88.96 30.75 C88.86,18.79 85.74,11.95 78.52,7.80 C75.10,5.84 73.09,5.50 65.00,5.50 C53.64,5.51 48.61,7.61 44.25,14.19 C41.88,17.77 41.45,19.56 41.15,27.09 L 40.81 35.83 L 29.97 36.16 C18.27,36.53 16.03,37.41 11.56,43.39 C9.52,46.12 9.50,46.89 9.50,128.00 C9.50,209.05 9.52,209.88 11.56,212.68 C12.69,214.23 15.61,216.52 18.05,217.77 L 22.49 220.03 L 114.17 219.77 C205.43,219.50 205.87,219.49 208.68,217.41 ZM 25.00 187.50 L 25.00 170.00 L 43.00 170.00 L 61.00 170.00 L 61.00 187.50 L 61.00 205.00 L 43.00 205.00 L 25.00 205.00 L 25.00 187.50 ZM 69.00 187.50 L 69.00 170.00 L 89.00 170.00 L 109.00 170.00 L 109.00 187.50 L 109.00 205.00 L 89.00 205.00 L 69.00 205.00 L 69.00 187.50 ZM 117.00 187.50 L 117.00 170.00 L 137.00 170.00 L 157.00 170.00 L 157.00 187.50 L 157.00 205.00 L 137.00 205.00 L 117.00 205.00 L 117.00 187.50 ZM 165.00 187.50 L 165.00 170.00 L 183.00 170.00 L 201.00 170.00 L 201.00 187.50 L 201.00 205.00 L 183.00 205.00 L 165.00 205.00 L 165.00 187.50 ZM 25.00 143.50 L 25.00 124.00 L 43.00 124.00 L 61.00 124.00 L 61.00 143.50 L 61.00 163.00 L 43.00 163.00 L 25.00 163.00 L 25.00 143.50 ZM 69.00 143.52 L 69.00 124.00 L 89.02 124.00 L 109.04 124.00 L 108.77 143.25 L 108.50 162.50 L 88.75 162.77 L 69.00 163.04 L 69.00 143.52 ZM 117.00 143.50 L 117.00 124.00 L 137.00 124.00 L 157.00 124.00 L 157.00 143.50 L 157.00 163.00 L 137.00 163.00 L 117.00 163.00 L 117.00 143.50 ZM 165.00 143.52 L 165.00 124.00 L 183.02 124.00 L 201.04 124.00 L 200.77 143.25 L 200.50 162.50 L 182.75 162.77 L 165.00 163.05 L 165.00 143.52 ZM 25.00 99.50 L 25.00 82.00 L 43.00 82.00 L 61.00 82.00 L 61.00 99.50 L 61.00 117.00 L 43.00 117.00 L 25.00 117.00 L 25.00 99.50 ZM 69.00 99.52 L 69.00 82.00 L 89.02 82.00 L 109.05 82.00 L 108.77 99.25 L 108.50 116.50 L 88.75 116.77 L 69.00 117.04 L 69.00 99.52 ZM 117.00 99.52 L 117.00 82.00 L 137.02 82.00 L 157.05 82.00 L 156.77 99.25 L 156.50 116.50 L 136.75 116.77 L 117.00 117.04 L 117.00 99.52 ZM 165.00 99.52 L 165.00 82.00 L 183.02 82.00 L 201.05 82.00 L 200.77 99.25 L 200.50 116.50 L 182.75 116.77 L 165.00 117.05 L 165.00 99.52 ZM 58.75 61.92 C57.18,61.01 57.00,58.93 57.00,41.65 C57.00,28.01 57.35,22.05 58.20,21.20 C59.76,19.64 70.24,19.64 71.80,21.20 C73.49,22.89 73.49,60.11 71.80,61.80 C70.35,63.25 61.19,63.34 58.75,61.92 ZM 153.57 61.43 C151.24,59.09 151.24,23.91 153.57,21.57 C155.48,19.66 165.99,19.39 167.80,21.20 C169.34,22.74 169.49,58.22 167.96,61.07 C167.12,62.64 165.84,63.00 161.04,63.00 C157.01,63.00 154.64,62.50 153.57,61.43 Z" fill="rgb(254,254,254)"/>
</g>
</svg>